<svg id="Layer_1" data-name="Layer 1" xmlns="http://www.w3.org/2000/svg" width="1366" height="350" viewBox="0 0 1366 350"><defs><style>.cls-1{fill:#ffc760;}</style></defs><title>header</title><rect class="cls-1" x="0.5" y="0.5" width="1365" height="349"/><path d="M1365,1V349H1V1H1365m1-1H0V350H1366V0Z"/><path d="M400.72,171a.39.39,0,0,1-.07.28l-.35,2.18v1.05l-1.09,1.69-1.3,2.64-.42.73a2.69,2.69,0,0,0-1-.52l-.77.31.07,1.06-.74.07.81.45.14.43-2.53,2.07-2.08,1.44a9.56,9.56,0,0,1-2.95,1.58,16.71,16.71,0,0,1-3.29,1.85,12.8,12.8,0,0,1-3.29.83,41.93,41.93,0,0,1-4.74.21,30,30,0,0,1-5.29-.34,19.29,19.29,0,0,1-4.27-1.46l-.5.74-1.51-.6-.88.43a4.59,4.59,0,0,0-2.07-.85l-.25-.42h-.7l-2.32.21c-.21-.07-.49-.36-.84-.88l-1.38-.21.22.63-.64.46a3.68,3.68,0,0,1-1.23.63,1.71,1.71,0,0,1-.74-.21l-.21-1.23-.07-.49.95-.67,2.81-1.19,1.06-1.51.6-.88.21-6.68.14-.74-.42-1,.77-2.29-.63.22-.07-1.59a13.46,13.46,0,0,1,.28-2.46l.63-.28.14-.28-.56-1.79.42-1.23-.7-1.73.35-2.88-.14-.81h-.49l-.39-1.19.18-.95-.32-.35.07-.53-.14-2,.14-1.79-.28-1,.21-.63.14-.46-.14-.49a3.24,3.24,0,0,1-.37-.9,18.69,18.69,0,0,1-.19-2l-.07-1a.87.87,0,0,0,.56-.78l-.07-.49a4,4,0,0,1-1.94-.81l-1.23.14-.14-.35h-.28v-.49l.71-.67,2-.7.71-.67a2.55,2.55,0,0,1,1.72-.63l1.3.14,1.51-.14.88.28,5.66-.21.53.49.7.21.28-.28,1.3-.28,2.89.28,2.95.21a6.44,6.44,0,0,1,3.3,1l.67-.49,1.3.28.85.21h1.09l.95.21c1.24.78,1.86,1.37,1.86,1.8a4,4,0,0,1-.74,2.17l-.35.85-.56-.07c-.54,0-.81.24-.81.74l-.07,1.23-1.51.63-1.23,1.16L380,151.43l-1.09.95v.35l1,.5,1,.8.91.36.32-.29,2.29.71q0,1.65.66,1.65a1.65,1.65,0,0,0,1.13-.56l.88-.07a2,2,0,0,1,1.12.23,1.64,1.64,0,0,1,.6.79h.56l.53.49.56-.21,4,2.14V160l.7.35c1.1.49,1.65,1,1.65,1.51a2.52,2.52,0,0,1-.28,1.09c.56.61,1,.92,1.23.92l.56-.21a5.54,5.54,0,0,1,1.44,2.88c0,.16-.18.41-.56.74l.21.21-.07.7A5.48,5.48,0,0,1,400.72,171Zm-6.61,2.39L394,173l-.52-3.09c-.26-1.55-.44-2.54-.55-3a2.69,2.69,0,0,0-.75-1.24,6.13,6.13,0,0,1-.92-1.23l-.39-1-.42-.57-1.3-.38-.7-.07a10.22,10.22,0,0,0-1.86-1.59l-5.21-1.72-.95-.63-1.65-.21-1.19-1.37a1.72,1.72,0,0,0-1.23-.53c-.33,0-.56.2-.67.6l-.78-.28-.07.49-.66.07-.71-.35-1.72-.39h-1.58l-1.58-.35-2.32-.21a4.63,4.63,0,0,0-1.87.63l.42,3-.95,1.09.07,1.09c.15,1.27.24,2,.29,2.17a4.75,4.75,0,0,0,.52,1l-.14,1.93.07,2.25.14.85a3.56,3.56,0,0,1-.49,2,3.37,3.37,0,0,0,.49,1.8l-1.16,1.09.07,1.44,1,.42.14.7.22,2.46.66,2.15c-.19.82-1.1,1.3-2.74,1.44l-.21.53a5,5,0,0,1,1.27.38,4,4,0,0,1,.87.74l.95.18,2.61.49,2.7.21,3.62.81,3.38-.18,4.53.07a2.51,2.51,0,0,0,1.16-.28l1.16-.42,1.13-.49,1.3-1.16,1.93-1.23a5.13,5.13,0,0,0,1.62-2.22l1.06-2.32.66-1,.28-1.44Zm-13.32-28.9c-2.25-1.24-3.91-1.87-5-1.87l-1,.14-.81-.49-.84.14-3.55-.35-1.58.21a13.25,13.25,0,0,0-4,.78l-.07.66.25,2.61-1.09,1.72-.07.28.07.28v.49l1.37.39.14.77c.1,1.08.14,1.74.14,2a3.29,3.29,0,0,1-.42,1.51,5.63,5.63,0,0,0,1.51-.52l.42-.21,2.75-.08.24-.05.3-.07.41-.12.35-.11.91-.28a1.85,1.85,0,0,0,1,.49.75.75,0,0,0,.56-.21l1.23-1.16,3.45-1a5.68,5.68,0,0,0,1.67-1.17,5,5,0,0,0,1.21-1.64A7.38,7.38,0,0,0,380.79,144.51Z"/><path d="M415.84,141.2l-.14,1.09-.21,1.16-.7,1.2.49,3.69a6.46,6.46,0,0,1-.81,2.39v.63l.53.21-.07,1.09.14,2.89a3.6,3.6,0,0,1-.14,1.17,2.94,2.94,0,0,1-.67.9l.53.81-.07,1v1l-.74,1.23.35.92a3.6,3.6,0,0,1,.32,1l-.18,1.93v2.11l-.49,1.65v.28a1,1,0,0,0,.56.88v1.3l.11.78.07,1.51v.56l-.67,2,.67.35-.25.56.32,2-.14,3.31.21,1.37.07.91c-2.14,1.92-3.6,2.89-4.4,2.89l-.42-.07-.11.38-1.26.28-.6-.88a4.41,4.41,0,0,0,.67-1.93v-.81l.91-3.09v-2.29l1.59-.28.07-.31A2,2,0,0,0,411,178l-.84.07-.18-.14-.21.21.14-1.16.07-1.58.25-2.6-.07-1.37.63-1a3,3,0,0,1-.75-.93,3.87,3.87,0,0,1-.13-1.25,4.23,4.23,0,0,1,.53-1.93l-.53-.56v-1l.07-3.38a1,1,0,0,0-.07-.45l-.14-.71-.07-.74a1.28,1.28,0,0,0,.46-1l-.67-.74.28-.56-.28-2.6.42-1.3v-.14a1.8,1.8,0,0,0-.7-1.23l-.07-.71-.21-3.09.21-1.3-.49-.74.07-1.13v-2a1.18,1.18,0,0,1,1.05-.64l1.83-.14c.28-.05.66-.5,1.13-1.37l1.23-.35,1.16-.46c-.05,0,.11.05.49.14A5,5,0,0,1,415.84,141.2Z"/><path d="M464.67,170.87a7.26,7.26,0,0,1-.35,2l-1.44-.07-.49.21.14.95a1.39,1.39,0,0,1,.77,1.3,3.87,3.87,0,0,1-.28,1.86l-1.86,2.46-.64,1.06-1.37,1.44-1.37,1.3-.74.39-5.52,3.58-2.74.88a4.23,4.23,0,0,1-1.51.42,3.53,3.53,0,0,1-.74-.21,4.73,4.73,0,0,1-2.35.57l-1.66-.07h-3.2l-1.12-.29-4.18-.28-2.32-1.3-1,.21.42.35-1-.14-1-.14-2.74-2-1.87-.25-2-1.19c-.83-.59-1.24-1-1.24-1.23a3.81,3.81,0,0,1,.57-1.74,9.37,9.37,0,0,1,1.33-1.88,3.57,3.57,0,0,1,2.22-1.34l.53,2.64a3.1,3.1,0,0,1,.94.59,2.52,2.52,0,0,1,.39,1l.81-.14.7.46.6.84,2.36.67,2.39,1.05,4.81,1a5.51,5.51,0,0,0,1.44.77c.33,0,.53-.23.6-.7l.49-.07,4.4.28,1.37-.7.77.28,1.3-.28,1.52-.53a3.57,3.57,0,0,0,1.79-1.12l1-1.37,1.23-1.3a6.9,6.9,0,0,0,.56-1.66c.92,0,1.37-.29,1.37-.88l-.14-.7-.07-.88.56-.63,1.09-3.27h.36l-.15-2.07-.7-1.94-.28-.81-1-.07-2.6-1.58-3.16-1.23-.71-.77-1-.6-.74.39-.21.35-4.81-.21-1.09-1.3-.85,1.09-.81-.18-2-.42c-1.33-.26-2.36-.5-3.08-.72a6.76,6.76,0,0,1-1.81-.86l.07-.78-1.23-.53-.59.15a7.69,7.69,0,0,1-1.64-1.5,9.39,9.39,0,0,1-.86-2.16l.28-.07-.7-.81-.11-1.12-.14-1.16v-.36l.46-1.44.42-.81.42-1.09,1.16-.84a2.38,2.38,0,0,0,.81-2l.63-.49,3.84-2.88,1.65-1,2.71-1.37,3.76-1.23.88-.28.91-.14,2.18-.25,1.06-.42,3.55.42,1.58-.07,1,.39,1.76.42c1.2.31,1.79.69,1.79,1.16a1.45,1.45,0,0,1-.07.49l-.74.28-.91.81a9.17,9.17,0,0,1-2.81,1.13l-.74-.42-1.86-1.38-1-.14-2.89-.56-1.65.07-1.93.07-3.45,1.8-2.46,1.23-1.65,1.3-.81.91-1.51,2.67-1.37,1-.28.85.95.52a2,2,0,0,0-.14.78,3.34,3.34,0,0,0,.35,1.16l-1.37.7.35.81.74.28,1.3.21,1.37,1.16,2.88,1.3.77.7,2.46-.21,2.15.21.14.46.88-.14,1.23-.14a1.15,1.15,0,0,1,.49.07l1.86.42.95.21c.17,1.11.47,1.66.92,1.66l.12-.06h.12l1.59-1,1.86.14,1.37-.07a3.28,3.28,0,0,1,2.15.87l1.79,1.59h.09l.28,0a2.78,2.78,0,0,0,.37,0h.07q.48,0,2.46,2.46l.56.7.14.95Z"/><path d="M514.28,141.87l-.63.49-.88,1.51L510,145l-1.3.85a1.86,1.86,0,0,1-.84.21h-.07l-2-.35-4.75-.14-3.3-.35-3.17.21-1.23-.21-.49.07-.38,1.65.17.88.07,1.12v.32l-.39,1.65.08,1.27-.15,1.09.22.8a2.06,2.06,0,0,0-1.08.29,1.59,1.59,0,0,0-.26,1c.77.11,1.19.32,1.27.63l-.15,2.53v1.65a3.32,3.32,0,0,1-1.37,2.29c.12.21.23.38.32.51a.86.86,0,0,0,.44.3,3.18,3.18,0,0,0,.61.14l.22.42a1.73,1.73,0,0,0-.62.56,2.66,2.66,0,0,0-.23.95l.85,1v3.23a1.59,1.59,0,0,1-.5,1.09l.35.85-.14.95.29,1.3-.15,1,.08.84.07,1.44c-.9.38-1.34.9-1.34,1.58s.42,1.07,1.27,1.52l.52,5.9-.52.42-.64.32-1.86,1.58-.67.07h-.49l-.42.5a1.38,1.38,0,0,0-.67-.29l-.42.14-.42-.94a3,3,0,0,0,.08-.34.86.86,0,0,1,.06-.23l.28-1.58-.28-1.86.28-2.74.21-4,.35-3v-.81l.67-.84-.88-3.24.35-2.25-.21-3-.14-2-.07-.07a10.08,10.08,0,0,1,.67-2.46l-.25-.77a8.76,8.76,0,0,1-.77-2.67v-.07l.07-1-.42-1.79.07-1-.46-2.57-.14-.88,1.09-2.14c.49-.29.74-.55.74-.81A2.15,2.15,0,0,0,488,145l-2-.38h-.64l-.73-.07-1.59-.64-3.16.29-4.82-.5-5.2.29-.84-.15a2.36,2.36,0,0,1-1.59,1h-.21l-1-.14-1-.17a4,4,0,0,1,.27-1.5,3.32,3.32,0,0,1,.82-.93l2.61-2a7.54,7.54,0,0,1,3.05-.49h.95c.29.68.67,1,1.16,1a2.78,2.78,0,0,0,1.66-.81l1.58.14,3.09,1,2.6-.14,2,.49,4.08.21,1.72.95.81.07.07-.28.88.07c1.48.12,2.4.21,2.76.28a2.45,2.45,0,0,1,1.11.6l1.23.28.63-.45,1.16-.07,1.51-.64,2.61.07,1.72-.35a5.86,5.86,0,0,0,1.79.35,14.49,14.49,0,0,0,6.58-1.58l.42.21Z"/><path d="M564.52,186.2l-.78.53-.88.63-1.3.35-2.49.88a8.67,8.67,0,0,1-2.25.29h-1.23a9,9,0,0,0-1.37-1.8l-1.8-1.09-.84-.7-.46-.53c-.61-.75-.91-1.14-.91-1.16l-.32-2-1.33-.49-1.16-1.73-1.38-.52-.8-1.13-.57-.18-.49-.56L543,176l-.67-.77-1-.56-1.23-1.44-.74-.74a2.25,2.25,0,0,0,.18-.78c0-.54-.2-.85-.6-.95l-1.73-.35-.49-.6-2-1.51-1-1.51-1.23-.63-1-.95-.91-.35-2.25-1.72-.71-.22-.24.92-.36.88-.07,1.65a.82.82,0,0,1,.5.7,1.47,1.47,0,0,1-.07.53l-.29.84-.14,2-.14,1.58.14,1-.28.88.5.88-.08.7-.21,1.86.07,1.16.74,5.7v.21a1.42,1.42,0,0,1-.45,1.09l-.71.63-.6.53h-1.19a1.5,1.5,0,0,0-1.09.49l-1.86,1.51a1,1,0,0,1-.67.15c-.47,0-.7-.15-.7-.43a12.33,12.33,0,0,1,.84-2.11,3.52,3.52,0,0,0,.39-1.79l.07-2.39.42-1.2-.21-2.6.35-.63.56.07a.66.66,0,0,0,.63-.3,2.46,2.46,0,0,0,.18-1.14l-.49-.46a1.69,1.69,0,0,1-.81-1.37l.21-1.37-.35-.42-.07-1.16.07-1.58.28-2.71-.28-3.41.21-1.65-.42-.92c.07-.33.5-.62,1.3-.88v-1.3a1.33,1.33,0,0,0-.95-.63l-.07-1.58-.14-2.74.21-1.38a6.75,6.75,0,0,1-.62-1.44,7.5,7.5,0,0,1-.15-1.72v-1.58l-.25-.21.25-2.6a3.6,3.6,0,0,0-.67-2l-1.37-.81.14-1,.74-.21.49-.21a13.51,13.51,0,0,1,4.46-1l2.53-.14,1.09-.14c.47.45.82.67,1.06.67h.07l3.55-.67.77.46a.34.34,0,0,1,.16,0l.12,0,.88-.07,2.46.07h5l3.73.63,2.39.14,1.93,1,2.18.63a3.06,3.06,0,0,1,1.81,1.36,4.52,4.52,0,0,1,.62,2.41,9,9,0,0,1-.64,3l-1.23-.21a1.48,1.48,0,0,0,.64,1.19l-.36.81-.77.78-.46.59c-.09.1-.46.14-1.12.14a.92.92,0,0,0-.14.5l.28.59-.46.57-.77.42-1.58,1.83-1.16.42-1.16.77L546,158a2.09,2.09,0,0,1-1,1.3l-.84.35-1.09.39h-.88l-1.72.56-.49.07h-.28l-1,.81a1.06,1.06,0,0,0-.57-.21.82.82,0,0,0-.45.14.61.61,0,0,0-.07.28c0,.21.17.47.52.78l-.24.59c-.47.4-.71.71-.71.92a3.3,3.3,0,0,0,.15.39H538a1.64,1.64,0,0,1,1.06-.53l.74.81-.36.28c.08.72.31,1.09.71,1.09l.7-.07.74.91,2,2.25,1.37,1.23,1.52,1.79-.21.92,1.51.81a2.73,2.73,0,0,0,.44.82,10.48,10.48,0,0,0,1.07.83l1.58,1.72,1.09,1.23.56.64v.45a1.83,1.83,0,0,0,.35,1.13l1.45.46.66.49,1.23,1.16,3.59,2.21.74.74.19,0a.19.19,0,0,1,.09.05l2.21-.35h.08A2.56,2.56,0,0,1,564.52,186.2ZM549,147.71a2.52,2.52,0,0,0-.88-2.18l-1.13-.88-1.23-.92-1.16-.07-1.65-.59-.35-.07H542l-.42-1-.95-.14-.49.84-5-.42-.46.35-.56-.07-4.89.57h-.73l-.57.66a1,1,0,0,0-1,.58,7,7,0,0,0-.28,2.45l.07,2.28.07,1.51v.95c-.68.54-1,1-1,1.37,0,.57.44.95,1.3,1.16l.29.78-.14,1.16v1l-.29,1.65c.07.56.58,1,1.52,1.44l-.07.28,3.16-.07.46.42.63-.14,1.16-.14,2.28-.88.81.32.78-.39,3.16-1.12,1.16-.81,2.39-1,1.72-2.85,1.94-2.11.14-1.16.67-1.79Z"/><path d="M623.65,164.16a.88.88,0,0,1-.07.39l-.63,2.07.07,1.79-.53,1a1.33,1.33,0,0,0-.49-.07c-.14,0-.27.12-.39.35a1.79,1.79,0,0,0-.18.81.29.29,0,0,0,.07.21,4.35,4.35,0,0,1,.71,1.52.91.91,0,0,1-.14.49,3.59,3.59,0,0,0-1,1.58l-.78.35.21.25-.21.21.57.42-.07.21-.64.6-.81,1.33-.56.6a1.34,1.34,0,0,0-.81-.49c-.42,0-.63.23-.63.7a2.34,2.34,0,0,0,.56,1,10.39,10.39,0,0,1-3.58,3.38,53.33,53.33,0,0,1-5.38,3,18.47,18.47,0,0,1-4.29,1.61l-.7.14a26,26,0,0,1-3.31.5h-.14l-1.37-.07-.88.14-1.3-.78-1,.43a2.23,2.23,0,0,1-1,.45h-.28a3.21,3.21,0,0,0-.57-1,2.47,2.47,0,0,0-.88-.55,8.18,8.18,0,0,1-3.37,1.13,1.36,1.36,0,0,1-.81-.29,2.19,2.19,0,0,1-.84-.07l-2.46-.7-2.08.07-.81-.67-1.16.14-1-.14-1.44-.42-4.47-1-1.23-1-1.58-.6-1.65-1.72a2.77,2.77,0,0,0-1.66-.42l-.94-1.09a3.15,3.15,0,0,0,.28-1c0-.73-.87-1.23-2.6-1.52v-.28L565,177l-.42-.77-.35-.39v-.77l-.74-2.11-.14-.7-.56-3.1.21-3,.28-.88.21-1.93,1.72-4.54.22-.81a5.13,5.13,0,0,1,2.32-2.7v-.46l1.79-2a2.28,2.28,0,0,0,.49.14.76.76,0,0,0,.74-.42l.49-1.51.67-.88a2.76,2.76,0,0,1,1-1.16l1.09-.49.95-1.16,2.22-1.51a11.25,11.25,0,0,1,2.53-1.44l.56.21,1-1.13.63-.14,6.65-2.6a3,3,0,0,1,1.37-.28,5,5,0,0,1,1.79.42l.56-.21.22-.67,1,.14.56.11h.17l1.73-.46,2.74.14,1.33-.28,1.16.14,1.09-.07,1.23.42,2.08.39,1.51.84,4.32,1.59.43.38.81.49v.36l-.15.07a.8.8,0,0,0-.28.52c0,.17.26.4.78.71l.14-.28a1.32,1.32,0,0,1,1.23.77,2.51,2.51,0,0,0,.14,1.07,3.43,3.43,0,0,0,.67.76,2,2,0,0,1,1-.32,1.87,1.87,0,0,1,1.51.74l.6.77,1.27,1.16.17.81.85,1.06.21.94a2.25,2.25,0,0,0-.57,1.24.91.91,0,0,0,.07.35l2.15,2.18.14.77.6,1.65c0,.07-.05.37-.14.88l-.53.28v.35l.6.07.14.81ZM618,158.22c0-1.06-.66-1.69-2-1.9l-.21-1.93-1.72-2.68-.28-1.09-.46-.07-.63-.77-1.59-1.86-1.44-.95-1.44-1.16-.67-.21-.42-.78h-.7a2.5,2.5,0,0,1-1.51-.38l-3.1-1.73-3.09-.42-2.25-.42-2.15.07h-1.65l-1.76.49-1.58.21-1.58,1-.84-.21h-.07l-.88.28-3.91,2.15-.91.14a4.16,4.16,0,0,1-1.72,1.65l-1,.39-3.1,3-.56.42a10.6,10.6,0,0,0-2.6,3.45l-.35.67-.74.14-.35.7-.42,1.83-.46.49-.21.7-1.44-.21a1.92,1.92,0,0,1-.37.79,2.65,2.65,0,0,1-.69.44l-.1.35c.86.54,1.3,1.07,1.3,1.59l-.07,2.46.53,3.58-.07.88,1.12,1.87q-.84.53-.84,1a.84.84,0,0,0,.33.61,1.19,1.19,0,0,0,.83.3l.3-.05a2,2,0,0,1,.4,0l1.3,1.58a2.27,2.27,0,0,0-.42.81l.28.56h.28l1.44,1.37,1.87,1,2.6,2.15,2,.38,1.09,1.13,3.66,1.37,3,1.3,1-.07,6.47.95,1,.07.81-.07,1.37-.35,3.51.21,1.52-.32,2.67-1.05,1-.28.53.42c.73-.21,1.12-.43,1.19-.67l.32-1.12,3.52-3,1.44-2.53.56-1h.46l.42-.91-.21-.39.21-.63L616,171l.56-1.38.18-1,.49-.35.35-2.14a4.52,4.52,0,0,1-.7-2v-.07l.14-3.38-.07-1.09C617.67,159.18,618,158.71,618,158.22Z"/><path d="M691.85,171a.39.39,0,0,1-.07.28l-.35,2.18v1.05l-1.09,1.69-1.3,2.64-.42.73a2.69,2.69,0,0,0-1-.52l-.78.31.07,1.06-.73.07.8.45.15.43-2.54,2.07-2.07,1.44a9.56,9.56,0,0,1-3,1.58,16.71,16.71,0,0,1-3.29,1.85,12.8,12.8,0,0,1-3.29.83,41.93,41.93,0,0,1-4.74.21,30,30,0,0,1-5.29-.34,19.52,19.52,0,0,1-4.28-1.46l-.49.74-1.51-.6-.88.43a4.59,4.59,0,0,0-2.07-.85l-.25-.42h-.7l-2.32.21c-.21-.07-.49-.36-.85-.88l-1.37-.21.21.63-.63.46a3.78,3.78,0,0,1-1.23.63,1.71,1.71,0,0,1-.74-.21l-.21-1.23-.07-.49,1-.67,2.81-1.19,1.06-1.51.6-.88.21-6.68.14-.74-.42-1,.77-2.29L651,171l-.07-1.59a13.46,13.46,0,0,1,.28-2.46l.63-.28.14-.28-.56-1.79.42-1.23-.7-1.73.35-2.88-.14-.81h-.49l-.39-1.19.17-.95-.31-.35.07-.53-.14-2,.14-1.79-.28-1,.21-.63.14-.46-.14-.49a3.24,3.24,0,0,1-.37-.9,18.69,18.69,0,0,1-.19-2l-.08-1a.87.87,0,0,0,.57-.78l-.07-.49a4,4,0,0,1-1.94-.81l-1.23.14-.14-.35h-.28v-.49l.7-.67,2-.7.71-.67a2.55,2.55,0,0,1,1.72-.63l1.3.14,1.51-.14.88.28,5.66-.21.53.49.7.21.28-.28,1.3-.28,2.89.28,3,.21a6.44,6.44,0,0,1,3.3,1l.67-.49,1.3.28.85.21H677l.95.21c1.24.78,1.86,1.37,1.86,1.8a4,4,0,0,1-.74,2.17l-.35.85-.56-.07c-.54,0-.81.24-.81.74l-.07,1.23-1.51.63-1.24,1.16-3.37,1.79-1.09.95v.35l1,.5,1,.8.91.36.32-.29,2.28.71c0,1.1.23,1.65.67,1.65a1.65,1.65,0,0,0,1.13-.56l.88-.07a2,2,0,0,1,1.12.23,1.64,1.64,0,0,1,.6.79h.56l.53.49.56-.21,4,2.14V160l.71.35c1.1.49,1.65,1,1.65,1.51a2.52,2.52,0,0,1-.28,1.09c.56.61,1,.92,1.23.92l.56-.21a5.54,5.54,0,0,1,1.44,2.88c0,.16-.19.41-.56.74l.21.21-.07.7A5.56,5.56,0,0,1,691.85,171Zm-6.61,2.39-.07-.39-.53-3.09c-.25-1.55-.43-2.54-.54-3a2.72,2.72,0,0,0-.76-1.24,5.83,5.83,0,0,1-.91-1.23l-.39-1-.42-.57-1.3-.38-.7-.07a9.78,9.78,0,0,0-1.87-1.59l-5.2-1.72-.95-.63-1.65-.21-1.2-1.37a1.69,1.69,0,0,0-1.23-.53c-.32,0-.55.2-.66.6l-.78-.28-.07.49-.67.07-.7-.35-1.72-.39h-1.58l-1.59-.35-2.32-.21a4.64,4.64,0,0,0-1.86.63l.42,3-1,1.09.07,1.09c.14,1.27.24,2,.29,2.17a4.75,4.75,0,0,0,.52,1l-.14,1.93.07,2.25.14.85a3.56,3.56,0,0,1-.49,2,3.28,3.28,0,0,0,.49,1.8l-1.16,1.09.07,1.44,1,.42.14.7.21,2.46.67,2.15c-.19.82-1.1,1.3-2.74,1.44l-.21.53a4.91,4.91,0,0,1,1.26.38,4,4,0,0,1,.88.74l1,.18,2.6.49,2.71.21,3.62.81,3.38-.18,4.53.07a2.51,2.51,0,0,0,1.16-.28l1.16-.42,1.13-.49,1.3-1.16L680.6,183a5.13,5.13,0,0,0,1.62-2.22l1-2.32.67-1,.28-1.44Zm-13.32-28.9c-2.25-1.24-3.92-1.87-5-1.87l-1,.14-.81-.49-.84.14-3.55-.35-1.58.21a13.25,13.25,0,0,0-4,.78l-.07.66.25,2.61-1.09,1.72-.07.28.07.28v.49l1.37.39.14.77c.09,1.08.14,1.74.14,2a3.29,3.29,0,0,1-.42,1.51,5.63,5.63,0,0,0,1.51-.52l.42-.21,2.75-.08.24-.05.3-.07.41-.12.35-.11.91-.28a1.85,1.85,0,0,0,1,.49.76.76,0,0,0,.56-.21l1.23-1.16,3.45-1a5.68,5.68,0,0,0,1.67-1.17,5,5,0,0,0,1.21-1.64A7.38,7.38,0,0,0,671.92,144.51Z"/><path d="M747.29,185.57a1,1,0,0,1-.14.42l-1.37,1.16-1.44,2.08h-1.16l-.7.14-.07-.64-.43-.87.07-.71-.07-.67a4.56,4.56,0,0,1-.59-1.72h-.57l-.28-.77-1.23-2.39-.21-1.23-1.79-3.1a3.18,3.18,0,0,1-.32-1.44,1.29,1.29,0,0,0,0-.24,1.38,1.38,0,0,0,0-.32,2.33,2.33,0,0,1-1-.88,10.9,10.9,0,0,1-1.51-3.45l-1.23-.56c-.22,1.06-.63,1.58-1.23,1.58H732l-3.65-.66-1.3.07-1-.14-5,.66-2.95-.14-1.58.43-1.23-.43-.95-.24a3,3,0,0,1-.78.77,1.62,1.62,0,0,1-.81.18h-.21l-3.09-.21-1.16.28-1.51.07c-.52.11-1.09.91-1.72,2.39l-.64,1.37-.38.14a24.67,24.67,0,0,1-2.64,5.1l-.07.74-.53.77-1.93,4.32c-.14.43-.67.74-1.58.95l.07.57a8.53,8.53,0,0,1-1.16.07,3.81,3.81,0,0,1-2.15-.78l1.37-2.39,1-1.23.81-1.3.49-.77.49-.67v-.28c1-.14,1.44-.58,1.44-1.3v-.85l1.09-1.3,1.51-3.3.88-1.23,1-2.18,1.16-2.22,1.37-2.32,1.44-1.37a.48.48,0,0,0,.14-.35,1,1,0,0,0-.35-.63,7.27,7.27,0,0,0,.91-.76,3.13,3.13,0,0,0,.53-.83l-.42-.66.42-.71.56-1.65a4.69,4.69,0,0,1,.88-.88l-.07-.35,1.58-4,1.23-3.31a7.9,7.9,0,0,1,1.58-2.25l-.28-.77.21-1a6.41,6.41,0,0,1,.41-1.41,1.19,1.19,0,0,1,.67-.56,7.92,7.92,0,0,1,1.21-.32l.21-.52-.35-1.06a2.41,2.41,0,0,1-.14-.59.73.73,0,0,1,.42-.71l2.39-1.58.49-1.09a2.73,2.73,0,0,1,2-1l.42,1.44h.43l-.15.39.5,1,1,1.3,1.3,2.39.7,1.94.88,1.58-.88.28a.88.88,0,0,0,.32.67c.84.49,1.26,1,1.26,1.37l-.07.63.81.88,1,1.58.49.85.07.28-.28.67.14.7.49.67,1,.84,1.23,2.46.64,1.09v.85c.91.79,1.37,1.4,1.37,1.83a3.61,3.61,0,0,1-.14.49l.7.7,1.58,2.67c.14.21.25.39.34.55s.22.4.42.74.33.58.4.72a6.94,6.94,0,0,1,.69,1.19,4.34,4.34,0,0,1,.12,1c.82.39,1.23.85,1.23,1.37,0,0,0,.09-.1.14l-.14,1.51a2.7,2.7,0,0,1,.14.49l1.44.74.45.63.22.67c.09.35.48.7,1.16,1.06v.8l1.19,1.23,1.16,1.94.6.7a4.81,4.81,0,0,1,.67,1.13A2.68,2.68,0,0,1,747.29,185.57ZM732.84,167.5l-.31-.28.14-.25-.14-.35h-.71a6.08,6.08,0,0,1-.66-2.67l-.07-.7-1.34-.36-1.69-3.34h-.49l-2.14-4.21.28-.81-.21-.88-1.66-.85-2.53-5a6.49,6.49,0,0,0-1.65-1.62l-.42.32-.46,1.44-.28.07a10.57,10.57,0,0,1-.63,1.83,5.8,5.8,0,0,1-.88,1,2.73,2.73,0,0,0-1,1.65l-.14.85-1.58,3.48c-.17.42-.32.78-.46,1.09l-.28.59a2.64,2.64,0,0,1-.25.39,2,2,0,0,1-.38.42l-.29.74a2.67,2.67,0,0,1-.45.86,1.42,1.42,0,0,1-.78.2l-.07.8a7,7,0,0,1-.58,2.64,4.35,4.35,0,0,1-1.49,1.55l.63,1a1,1,0,0,0-.63.25,1.57,1.57,0,0,0-.35.7l-.25.88.6.07,1.16.35.91-.14.81.28.14-.28.64-.07,4.53.28,2.88-.21,1.16.49a1.49,1.49,0,0,1,.37-.29,3,3,0,0,1,.76-.11c.42,0,1.08-.11,2-.23l1-.14-.14.35.28.14c.21,0,.47-.18.77-.56l1-.07,2.81-.26c.63-.06,1-.11,1.16-.14A3.36,3.36,0,0,0,732,168,5.6,5.6,0,0,0,732.84,167.5Z"/><path d="M796.76,171a.45.45,0,0,1-.07.28l-.35,2.18v1.05l-1.09,1.69-1.3,2.64-.43.73a2.56,2.56,0,0,0-1-.52l-.77.31.07,1.06-.74.07.81.45.14.43-2.53,2.07-2.07,1.44a9.6,9.6,0,0,1-3,1.58,16.66,16.66,0,0,1-3.28,1.85,12.91,12.91,0,0,1-3.29.83,42.13,42.13,0,0,1-4.75.21,30.15,30.15,0,0,1-5.29-.34,19.46,19.46,0,0,1-4.27-1.46l-.49.74-1.51-.6-.88.43a4.63,4.63,0,0,0-2.08-.85l-.24-.42h-.71l-2.32.21c-.21-.07-.49-.36-.84-.88l-1.37-.21.21.63-.63.46a3.88,3.88,0,0,1-1.23.63,1.71,1.71,0,0,1-.74-.21l-.21-1.23-.07-.49.95-.67,2.81-1.19,1-1.51.6-.88.21-6.68.14-.74-.42-1,.77-2.29-.63.22-.07-1.59a13.46,13.46,0,0,1,.28-2.46l.64-.28.14-.28-.57-1.79.43-1.23-.71-1.73.35-2.88-.14-.81h-.49l-.39-1.19.18-.95-.32-.35.07-.53-.14-2,.14-1.79-.28-1,.21-.63.14-.46-.14-.49a3.57,3.57,0,0,1-.37-.9c0-.27-.12-.93-.19-2l-.07-1a.86.86,0,0,0,.56-.78l-.07-.49a3.94,3.94,0,0,1-1.93-.81l-1.23.14-.14-.35h-.28v-.49l.7-.67,2-.7.7-.67a2.57,2.57,0,0,1,1.72-.63l1.31.14,1.51-.14.88.28,5.66-.21.52.49.71.21.28-.28,1.3-.28,2.88.28,2.95.21a6.47,6.47,0,0,1,3.31,1l.67-.49,1.3.28.84.21h1.09l.95.21c1.24.78,1.86,1.37,1.86,1.8a4,4,0,0,1-.73,2.17l-.36.85-.56-.07c-.54,0-.81.24-.81.74l-.07,1.23-1.51.63-1.23,1.16L776,151.43l-1.09.95v.35l1,.5,1,.8.92.36.32-.29,2.28.71c0,1.1.22,1.65.67,1.65a1.63,1.63,0,0,0,1.12-.56l.88-.07a2.07,2.07,0,0,1,1.13.23,1.77,1.77,0,0,1,.6.79h.56l.52.49.57-.21,4,2.14V160l.7.35c1.1.49,1.66,1,1.66,1.51a2.54,2.54,0,0,1-.29,1.09c.57.61,1,.92,1.23.92l.57-.21a5.54,5.54,0,0,1,1.44,2.88c0,.16-.19.41-.56.74l.21.21-.07.7A5.56,5.56,0,0,1,796.76,171Zm-6.61,2.39-.07-.39-.53-3.09c-.26-1.55-.44-2.54-.54-3a2.72,2.72,0,0,0-.76-1.24,5.83,5.83,0,0,1-.91-1.23l-.39-1-.42-.57-1.3-.38-.71-.07a9.55,9.55,0,0,0-1.86-1.59l-5.2-1.72-1-.63-1.65-.21-1.2-1.37a1.69,1.69,0,0,0-1.23-.53c-.33,0-.55.2-.67.6l-.77-.28-.07.49-.67.07-.7-.35-1.73-.39h-1.58l-1.58-.35-2.32-.21a4.64,4.64,0,0,0-1.86.63l.42,3-.95,1.09.07,1.09c.14,1.27.23,2,.28,2.17a5,5,0,0,0,.53,1l-.14,1.93.07,2.25.14.85a3.65,3.65,0,0,1-.49,2,3.28,3.28,0,0,0,.49,1.8l-1.16,1.09.07,1.44,1,.42.14.7.21,2.46.67,2.15c-.19.82-1.1,1.3-2.74,1.44l-.22.53a5,5,0,0,1,1.27.38,4,4,0,0,1,.88.74l1,.18,2.6.49,2.71.21,3.62.81,3.37-.18,4.54.07a2.54,2.54,0,0,0,1.16-.28l1.16-.42,1.12-.49,1.3-1.16,1.94-1.23a5.05,5.05,0,0,0,1.61-2.22l1.06-2.32.67-1,.28-1.44Zm-13.33-28.9c-2.25-1.24-3.91-1.87-5-1.87l-1,.14-.81-.49-.84.14-3.56-.35-1.58.21a13.12,13.12,0,0,0-4,.78l-.07.66.25,2.61-1.09,1.72-.07.28.07.28v.49l1.37.39.14.77c.09,1.08.14,1.74.14,2a3.29,3.29,0,0,1-.42,1.51,5.63,5.63,0,0,0,1.51-.52l.42-.21,2.74-.08.25-.05.3-.07.4-.12.35-.11.92-.28a1.85,1.85,0,0,0,1,.49.76.76,0,0,0,.56-.21l1.23-1.16,3.44-1a5.44,5.44,0,0,0,1.67-1.17,5,5,0,0,0,1.22-1.64A7.58,7.58,0,0,0,776.82,144.51Z"/><path d="M852.2,141.73l-.07,2.14-.7,2.61.07,1.3-.14,1,.42,1.65v.07a4.5,4.5,0,0,1-.81,2l-.49.92-.78.21.5.74c.53.72.89,1.22,1,1.49a1.55,1.55,0,0,1,.25.79l-.36,2.11v1.16l-.45.14.28.35-.28,1.16v.14l.67,4.26-.22.84c-.58.26-.87.58-.87,1s.31.81.94,1.3l.08,3-.32.85c-.09.37-.14.55-.14.53a2.83,2.83,0,0,0,.46,1.19,3.6,3.6,0,0,1,.35,1.44,2.62,2.62,0,0,1-.5,1.37,10,10,0,0,1,.85,1l-.07,2.82.14,3.51v.46a4.64,4.64,0,0,0-1.44.51,26.27,26.27,0,0,0-2.22,1.63l-.31.5-.64-.07-1.37,1.09a3.61,3.61,0,0,1-.35-1.45,2.74,2.74,0,0,1,.56-1.86h.53a1.34,1.34,0,0,0-.21-.77,1.76,1.76,0,0,0-.81-.39l.07-3.52.28-.24-.21-1.65a1.06,1.06,0,0,0-.56-.21h-.16l-.23.06-.35.38h-.56a.91.91,0,0,0-.67.21l-.84.57-1.45.63-5.27,3.62-1.72.63-2.29,1.23-3.09,1.09-2.39.71a5.41,5.41,0,0,1-2.15.66h-1.3l-2.18.71-1.93.07-1.23.14-1.09-.14-2.57-.49-1.58-.74-1.16-.35-1.44-1.38-.56-.63-1.16.14-.74-.56-.35-.74-1.3-1a4.47,4.47,0,0,1-.35-2.21v-.57l-1.09-.59-.43-1.23-.49-2.15-.38-.81,1-1.79a6.05,6.05,0,0,1-1.28-1.42,3.15,3.15,0,0,1-.37-1.53,3.5,3.5,0,0,1,.28-1.45l.88-2.07.07-2.81.57-.56a6.32,6.32,0,0,0,.94.14c.33,0,.5-.16.5-.46s-.24-.56-.71-.77v-1.45l-.73-.21.87-4.32.36-.81.35-.63.81-2.46.56-.85.28-.81.88-.84a4.71,4.71,0,0,1-.14-1.16,7,7,0,0,1,1.58-3.51l-.67-.46-.77.46a11.15,11.15,0,0,1-.28-1.38,1.26,1.26,0,0,1,.58-1,2.19,2.19,0,0,1,1.35-.44l.88.07.28-.67.92-.14,3.48-1.65,1-.42a2.58,2.58,0,0,1,.74,1.51.61.61,0,0,1-.28.56l-.74.6-1.51,2.22-.5.35L814,147l-.94,1.44-1.31,1.79-.77,1.23-.88,3.45-.84,2.67-.18,2.07-1,2.82-.07,1.3-.6,2.67.32,1.72-.39,1.3,1.23,4,.07.77a.91.91,0,0,0-.7.44,1.57,1.57,0,0,0-.28.93c0,.45.39.74,1.19.88l.39.84.63,1.66,1.65,2.32.28.77.74.32,1.3,1,3.31,1,2.14.56,1.3.46c.61.7,1.07,1,1.37,1s.6-.42,1-1.26l4.08-.25.74.67.77-.35,2.54-.95.94-.74,2.68-1.19,1.79-1.52.84-.14,2.39-1.51,1.66-.45.28-.43-.64-.42.78-.53,1.16-.91,2.18-3.48,1.05-.84a2.62,2.62,0,0,0,.28-1.45V168.2l.07-2.6a2.2,2.2,0,0,0,.67-.72,3,3,0,0,0,.14-1.14l-1.23-.92L845.8,155l.42-.7a2.4,2.4,0,0,1-.35-1,4.55,4.55,0,0,1,.35-1.52l-.35-.28-.07-.88-.28-3a3.33,3.33,0,0,1,.56-1.37l-1.58-1.65.42-1.13h.67a5.46,5.46,0,0,1,1.79-1.37l.81-.28.7-.46,1,.14a5.22,5.22,0,0,1,.88-1.23,2.08,2.08,0,0,1,1.13-.21l.35.95Z"/><path d="M901.07,170.87a7,7,0,0,1-.36,2l-1.44-.07-.49.21.14.95a1.38,1.38,0,0,1,.78,1.3,3.84,3.84,0,0,1-.29,1.86l-1.86,2.46-.63,1.06-1.37,1.44-1.37,1.3-.74.39-5.52,3.58-2.74.88a4.27,4.27,0,0,1-1.52.42,3.35,3.35,0,0,1-.73-.21,4.77,4.77,0,0,1-2.36.57l-1.65-.07h-3.2l-1.13-.29-4.18-.28-2.32-1.3-1,.21.42.35-1-.14-1-.14-2.74-2-1.86-.25-2-1.19q-1.23-.88-1.23-1.23a3.9,3.9,0,0,1,.56-1.74,9.41,9.41,0,0,1,1.34-1.88,3.52,3.52,0,0,1,2.21-1.34l.53,2.64a3.19,3.19,0,0,1,.95.59,2.69,2.69,0,0,1,.39,1l.8-.14.71.46.59.84,2.36.67,2.39,1.05,4.82,1a5.51,5.51,0,0,0,1.44.77c.33,0,.53-.23.6-.7l.49-.07,4.39.28,1.37-.7.78.28,1.3-.28,1.51-.53a3.57,3.57,0,0,0,1.79-1.12l1-1.37,1.23-1.3a6.82,6.82,0,0,0,.57-1.66c.91,0,1.37-.29,1.37-.88l-.14-.7L893,177l.56-.63,1.09-3.27H895l-.14-2.07-.7-1.94-.29-.81-1-.07-2.61-1.58-3.16-1.23-.7-.77-1-.6-.74.39-.21.35-4.82-.21-1.09-1.3-.84,1.09-.81-.18-2-.42a31.25,31.25,0,0,1-3.08-.72,6.48,6.48,0,0,1-1.81-.86l.07-.78-1.23-.53-.6.15a7.57,7.57,0,0,1-1.63-1.5,8.85,8.85,0,0,1-.87-2.16l.29-.07-.71-.81-.1-1.12-.14-1.16v-.36l.45-1.44.43-.81.42-1.09,1.16-.84a2.38,2.38,0,0,0,.81-2l.63-.49,3.83-2.88,1.65-1,2.71-1.37,3.76-1.23.88-.28.91-.14,2.18-.25,1.06-.42,3.55.42,1.58-.07,1,.39,1.75.42c1.2.31,1.8.69,1.8,1.16a1.75,1.75,0,0,1-.07.49c-.47.17-.72.26-.74.28l-.92.81a9.17,9.17,0,0,1-2.81,1.13l-.74-.42-1.86-1.38-1-.14-2.88-.56-1.65.07-1.94.07-3.44,1.8-2.46,1.23-1.66,1.3-.81.91-1.51,2.67-1.37,1-.28.85.95.52a2.16,2.16,0,0,0-.14.78,3.58,3.58,0,0,0,.35,1.16l-1.37.7.35.81.74.28,1.3.21,1.37,1.16,2.88,1.3.78.7,2.46-.21,2.14.21.14.46.88-.14,1.23-.14a1.2,1.2,0,0,1,.5.07l1.86.42,1,.21c.16,1.11.47,1.66.91,1.66l.13-.06H888l1.58-1,1.86.14,1.37-.07a3.28,3.28,0,0,1,2.15.87l1.79,1.59h.09l.28,0a2.56,2.56,0,0,0,.37,0h.07q.5,0,2.46,2.46l.56.7.14.95Z"/><path d="M954.22,184.13l-1.83,1.58-.56,1.16-.49-.32-.46.25-.42.77-1.93.88-.14-.14-.81-.24-.07-.92.14-.88.67-1.23-.25-1,.18-.88.35-2.07.49-1.8-.28-2.32-.07-.7.91-.67a7.24,7.24,0,0,0,0-.88,5.51,5.51,0,0,0-.53-2.21l.6-1.87-.74-.66.42-1.87-.35-.21.21-5.91-.42-.35-.35-1.44-.28.28a2.38,2.38,0,0,0-.87.11,2.58,2.58,0,0,0-.65.6l-.87,1-1.38-.57a10.09,10.09,0,0,1-1.65.42l-.88-.14a2.85,2.85,0,0,0-1.65-.73h-.16l-.12.06-3.66.31-3.69-.45-3,.24-1.51-.39-2.29.67-3.55-.38-.91.1-1.09-.81-.35.88-4.33-.07a2.35,2.35,0,0,0-.88,1.58l.42,2.78a4.75,4.75,0,0,1,.11,1.16,2.67,2.67,0,0,1-.39,1.37l.21,2.18a1.4,1.4,0,0,0-.59.62,2.84,2.84,0,0,0-.11.89,1.56,1.56,0,0,0,1,.64l.07,1.51v4.82l.07.87c0,.22-.15.43-.46.64l.07.74.53,2.14.07.74a2.41,2.41,0,0,1-1.44,2.28l-1.79.88L911,188l-1,.45-.21-.31h-.36a3.32,3.32,0,0,1-.38-1.41,2.2,2.2,0,0,1,.17-1l.78-1.79.35-1.23.53-.21.07-1.16-.6-.57a4.8,4.8,0,0,0,.53-1.16,4.41,4.41,0,0,0-.53-1.09l-.07-.63.28-5.84-.35-1.58a1.42,1.42,0,0,1,.59-1.23l.5-.42a1.73,1.73,0,0,0,.28-.81c-.73-.26-1.09-.69-1.09-1.3v-.14l.24-2.67-.45-1.13v-4l-.14-2,.07-1.09-.57.07-.14.14-.28-1,.28.28.14-1.34c.87-.49,1.31-1,1.31-1.51,0-.72-.49-1.16-1.45-1.3l-.52-2.46V148l-.21-2.81v-2.25l.87-.36,1.16-.84,1.87-.88,1.37-.56,1.05.42a2.88,2.88,0,0,0,.46,1.44,2.3,2.3,0,0,0-.61.92,13.58,13.58,0,0,0-.2,1.75l-.07.85.67,2.46.14,1.44h-.32l-.63,1.65.49.56-.14.74-.35.64-.35.73.14.78.28.6a5.89,5.89,0,0,1,.28,2.28l.81.21,6.26.35.95.67,2.35.28L926,159l.21-.35,2.43.14.32.07a1.49,1.49,0,0,1,1-.42l.74.07v.28l.42.28.81-.07,3.87-.07,1.44-.14,1.3.42a1.8,1.8,0,0,1,1.51-.91h.14l1.79.14,3.41-.32,2,.11.7-.18.25-.77.63-1.58-.14-4.05.14-.84-.49-.81-.88-.88V147.6l-.21-1.58.42-.77a8.72,8.72,0,0,1-.42-2.25q0-.67.42-.78l1-.14,1.09-.81h.84a3.55,3.55,0,0,0,1.37-1l1,.49.35,1.65.29.95-1,3.73.24,1.93-.14.81h-.39c-.32,0-.49.24-.49.7a1.27,1.27,0,0,0,.71.67l.66.35.21,1,.22,1.44-.08.43-.56,1.09.14,6.39-.14,5.49.56.84a10.33,10.33,0,0,0-.28,1.94v1.51c-.49.51-.73.88-.73,1.09s0,.14.07.14l.94,1.65-.21,4.78Z"/><path d="M1010.51,185.57l-.63.91-.22,0-.14.05a2.14,2.14,0,0,0-1.23.39,23.47,23.47,0,0,1-4.32,1.72l-.63.14-.39.43-.63-.35-1-1.45-1.23-.7-.57-.53-.56.14-.6-.56-5.76-3.9-2.08-2.36-2-1.09a5.27,5.27,0,0,1-2.74-3l-.67.14-1.13-.77-2.53-1.69c-.49-.33-.73-.56-.73-.7l-.08-1.16-.35-.78a2.34,2.34,0,0,1-1.58,1h-.28l-2-1.2-1.45-.74-2.81-2.21-.95-.46-.35,1.37.14,8.16-.07,1.51-.28-.14-.28.56.07.78.14,1.37.63,1a.17.17,0,0,1,.07.14l-.07,2.46v.42l-.35.28.35,1.16v.21l-1.72.81-1.37.92-.35-.29-1.65.67-.6.07-1,.35-.52-.95.38-.84c.28-.77.49-1.32.62-1.63s.23-.57.3-.76.11-.33.14-.42l.38-3.17.22-1a2.09,2.09,0,0,0,1.07-.51,1.6,1.6,0,0,0,.3-1.08l-.07-1.23-1,.14-.28-1.44a1.64,1.64,0,0,1,.7-1.3v-.77a2.47,2.47,0,0,1-.49-1.44v-.67l.07-2.71-.07-3,1-.53.25-.35-.46-2,.46-.59-.74-.35a2.74,2.74,0,0,1-.18-.62c0-.18,0-.73,0-1.67l-.07-.81a2.68,2.68,0,0,0,1-.74,2.09,2.09,0,0,0,.2-1.05l-1.23-.6-.14-.91-.14-2.32-.22-1.23.15-1.41-.81-.81.07-.42-.28-2.74-.07-2.32-1.09-1.3.07-.43,4.92-2.35a2.93,2.93,0,0,1,1.4-.46c.64,0,1,.41,1,1.23v.67a2.31,2.31,0,0,0-.59.53,1.9,1.9,0,0,0-.25.6,3.34,3.34,0,0,1,1.12,2.6l-.07.95c-1,.35-1.58.87-1.58,1.58s.55.91,1.65.91l-.14,6.65c-.86.26-1.3.54-1.3.84a.52.52,0,0,0,.07.25l1.09,2.07-.21.84.07,2.61-.21.8-.74.71.67.21.63-.21,1.09-.49,2.08-1.66a8,8,0,0,1,1.65-.88,12.64,12.64,0,0,0,1.51-.47,1,1,0,0,0,.42-.44,3.92,3.92,0,0,0,.32-.74l.88-.35,2.57-1.58,1.16-.88.63-.77,1.62-1.16,3.58-3.59,1.23-.6a4.47,4.47,0,0,1,.85-1.65l.45-.56.78.07a1.26,1.26,0,0,0,.81-.46l-.22-.35.22-.28-.39-.74,1.09-1.51.88-1.06,3.09-1.51,2.22-1.3.15-.05.13,0a.84.84,0,0,1,.58.21.74.74,0,0,1,.23.56,3.39,3.39,0,0,1-1.38,2.18l-2,1.94c-.43.4-.73.69-.92.88a17.13,17.13,0,0,1-1.77,2.12,2.77,2.77,0,0,1-1.39.51l-.35.67a6.52,6.52,0,0,1-2.11,2.6l-.92.42-3.62,3.45L984,157.76l-3.1,2.25-1.44,1.44-1,1.06-.63.52a1.38,1.38,0,0,0,.1.64.77.77,0,0,0,.46.28,4.87,4.87,0,0,0,1.3,1.3,23.16,23.16,0,0,1,4.68,3.23.66.66,0,0,1,.17.16,1.16,1.16,0,0,1,.11.16l.56,1.79h1.16a.78.78,0,0,1,.26.07l.34.14,3.16,2.36,1.65,1,1.38,1.23a7.45,7.45,0,0,1,1,.79,3.11,3.11,0,0,1,.55.86l1.09.07,2.77,2.6v1.45l2,.07.5.63.66.35a2.33,2.33,0,0,0-.24,1,1.52,1.52,0,0,0,.53,1.09,1,1,0,0,0,.77.49,1.71,1.71,0,0,0,.74-.21l.14-.56.56-.14a3.27,3.27,0,0,1,1.37.63l.07.7.42.18,2.68-.6h.14A2.29,2.29,0,0,1,1010.51,185.57Z"/><path d="M1063.35,185.57a1.17,1.17,0,0,1-.14.42l-1.37,1.16-1.45,2.08h-1.16l-.7.14-.07-.64-.42-.87.07-.71-.07-.67a4.79,4.79,0,0,1-.6-1.72h-.56l-.28-.77-1.23-2.39-.21-1.23-1.8-3.1a3.18,3.18,0,0,1-.31-1.44c0-.09,0-.17,0-.24a2.33,2.33,0,0,0,0-.32,2.42,2.42,0,0,1-1-.88,11.38,11.38,0,0,1-1.51-3.45l-1.23-.56c-.21,1.06-.62,1.58-1.23,1.58H1048l-3.66-.66-1.3.07-1-.14-5,.66-3-.14-1.58.43-1.23-.43-1-.24a2.87,2.87,0,0,1-.77.77,1.62,1.62,0,0,1-.81.18h-.21l-3.1-.21-1.16.28-1.51.07c-.51.11-1.09.91-1.72,2.39l-.63,1.37-.39.14a24.67,24.67,0,0,1-2.64,5.1l-.07.74-.52.77-1.94,4.32c-.14.43-.67.74-1.58.95l.07.57a8.42,8.42,0,0,1-1.16.07,3.79,3.79,0,0,1-2.14-.78l1.37-2.39,1-1.23.81-1.3.49-.77.49-.67v-.28c1-.14,1.45-.58,1.45-1.3v-.85l1.09-1.3,1.51-3.3.88-1.23,1-2.18,1.16-2.22,1.37-2.32,1.44-1.37a.45.45,0,0,0,.14-.35.92.92,0,0,0-.35-.63,7.52,7.52,0,0,0,.92-.76,3.13,3.13,0,0,0,.52-.83l-.42-.66.42-.71.57-1.65a4.69,4.69,0,0,1,.88-.88l-.08-.35,1.59-4,1.23-3.31a7.7,7.7,0,0,1,1.58-2.25l-.28-.77.21-1a6.55,6.55,0,0,1,.4-1.41,1.19,1.19,0,0,1,.67-.56,8.25,8.25,0,0,1,1.21-.32l.22-.52-.36-1.06a2.41,2.41,0,0,1-.14-.59.73.73,0,0,1,.42-.71l2.4-1.58.49-1.09a2.72,2.72,0,0,1,2-1l.42,1.44h.42l-.14.39.49,1,1,1.3,1.3,2.39.71,1.94.87,1.58-.87.28a.87.87,0,0,0,.31.67c.85.49,1.27,1,1.27,1.37l-.07.63.81.88.94,1.58.5.85.07.28-.28.67.14.7.49.67,1,.84,1.23,2.46.63,1.09v.85c.92.79,1.37,1.4,1.37,1.83a2.46,2.46,0,0,1-.14.49l.71.7,1.58,2.67a5.3,5.3,0,0,1,.33.55c.08.15.22.4.42.74s.34.58.41.72a6.62,6.62,0,0,1,.68,1.19,4.82,4.82,0,0,1,.13,1c.82.39,1.23.85,1.23,1.37,0,0,0,.09-.11.14l-.14,1.51c0-.05,0,.12.14.49l1.44.74.46.63.21.67c.09.35.48.7,1.16,1.06v.8l1.2,1.23,1.16,1.94.59.7a4.49,4.49,0,0,1,.67,1.13A2.51,2.51,0,0,1,1063.35,185.57ZM1048.9,167.5l-.32-.28.14-.25-.14-.35h-.7a6.19,6.19,0,0,1-.67-2.67l-.07-.7-1.34-.36-1.68-3.34h-.5l-2.14-4.21.28-.81-.21-.88-1.65-.85-2.53-5a6.83,6.83,0,0,0-1.66-1.62l-.42.32-.45,1.44-.29.07a10.57,10.57,0,0,1-.63,1.83,5.38,5.38,0,0,1-.88,1,2.73,2.73,0,0,0-1,1.65l-.14.85-1.58,3.48c-.16.42-.32.78-.46,1.09s-.23.5-.28.59a2.44,2.44,0,0,1-.24.39,2,2,0,0,1-.39.42l-.28.74a2.62,2.62,0,0,1-.46.86,1.38,1.38,0,0,1-.77.2l-.07.8a7.41,7.41,0,0,1-.58,2.64,4.38,4.38,0,0,1-1.5,1.55l.64,1a1,1,0,0,0-.64.25,1.68,1.68,0,0,0-.35.7l-.24.88.59.07,1.16.35.92-.14.81.28.14-.28.63-.07,4.53.28,2.89-.21,1.16.49a1.2,1.2,0,0,1,.37-.29,2.89,2.89,0,0,1,.75-.11c.42,0,1.08-.11,2-.23l1-.14-.14.35.28.14c.21,0,.47-.18.77-.56l1-.07,2.82-.26c.63-.06,1-.11,1.16-.14a3.65,3.65,0,0,0,.65-.29A6.13,6.13,0,0,0,1048.9,167.5Z"/></svg>
